<mxfile host="app.diagrams.net" modified="2023-09-14T06:48:07.159Z" agent="Mozilla/5.0 (Windows NT 10.0; Win64; x64) AppleWebKit/537.36 (KHTML, like Gecko) Chrome/117.0.0.0 Safari/537.36" version="21.7.4" etag="rCMcuVP9pI_FOyn2oJOL" type="github">
  <diagram name="Page-1" id="DHzsw7qp5RdwvfVfzMkx">
    <mxGraphModel>
      <root>
        <mxCell id="0" />
        <mxCell id="1" parent="0" />
      </root>
    </mxGraphModel>
  </diagram>
</mxfile>
